<?xml version="1.0" encoding="iso-8859-1"?>
<!-- Generator: Adobe Illustrator 19.0.0, SVG Export Plug-In . SVG Version: 6.00 Build 0)  -->
<svg version="1.1" id="Layer_1" xmlns="http://www.w3.org/2000/svg" xmlns:xlink="http://www.w3.org/1999/xlink" x="0px" y="0px"
	 viewBox="0 0 508 508" style="enable-background:new 0 0 508 508;" xml:space="preserve">
<path style="fill:#F5E200;" d="M504,378.8c0,68.8-56.4,125.2-125.2,125.2H129.2C60.4,504,4,447.6,4,378.8V129.2
	C4,60.4,60.4,4,129.2,4h249.6C447.6,4,504,60.4,504,129.2V378.8z"/>
<path style="fill:#FFFFFF;" d="M252.8,111.6c-18.8,0-38.4,5.6-53.6,17.6c-11.6,8.8-20.4,21.2-26,34.4c0,0-0.8,0-0.8,0.4
	c-5.6,13.6-5.2,28.4-5.2,41.6l0,0c4,9.6,2.4,18.8,1.6,27.2c0,0.4,0.4,1.2,0.4,1.2c-4.4,0.8-8.4,0.4-13.2,0.4l0,0
	c-3.2,0-6.4-2.4-10.4-3.6c0,0,0-0.4-0.4-0.4c-3.6-0.8-7.2,0-10,2l0,0l0,0c-2.4,1.6-5.2,4-5.6,8.4c0,0.4,0,0.4,0,0.8
	c0.4,2.4,2,4.4,3.6,5.6c1.6,1.2,2.8,2,3.6,2.8v-0.4c6.8,4.4,14.4,8.4,21.2,8.4l0,0c4.4,4,8.4,5.6,9.2,9.6c1.2,4.8,0,11.2-4,16.8l0,0
	c-8,14.8-18.4,27.6-32,36.8c-7.2,4.8-15.2,8.4-23.6,10.8c0,0,0,0-0.4,0c-1.6,0.8-5.6,1.2-8.4,4.8c0,0.4-0.4,0.4-0.4,0.8
	c-0.8,2.4,0,5.2,1.2,6.8c1.2,1.6,2.4,2.4,3.6,2.8l0,0c7.2,4,14.8,5.6,22,7.6l0,0c5.2,1.2,9.6,1.6,13.6,3.2c0,0.4,0.4,1.6,1.6,3.6
	c1.2,4,2,8.4,3.2,13.2c0.4,1.2,1.6,2.4,2.8,2.8c3.2,0.8,4.8-0.4,5.2-0.4h0.4c12-2,23.6-4,34.4-1.2l0,0c11.2,2.8,20.8,10.8,32,17.6
	H218l0,0c8,4.8,16,9.2,27.6,9.6l0,0l-0.4,0.8c7.6,0.4,14,0.4,21.2,0.4l0,0c6-4,12-3.6,17.2-6.8c0,0,0-0.4,0.4-0.4
	c11.6-6.8,22-14.8,33.6-20l0,0c3.6-1.2,8.4-1.2,13.6-1.6l0,0c9.6-0.4,18.8,0.4,28.4,1.6c0.4,0,0.8,0,0.8,0c1.2,0,2.4-0.8,3.2-1.6
	c0.8-0.8,0.8-1.6,0.8-2c0.4-0.8,0.4-1.6,0-0.8c0-0.4,0.4-0.4,0.4-0.8c1.6-5.6,2.8-10.8,5.6-14c1.2-1.2,3.2-2,6-1.6h0.4
	c8-0.8,15.6-4,22.4-6.4c0,0,0,0,0.4,0c2.4-1.2,6.4-2.4,9.2-6l0,0l0,0c2.4-3.2,1.2-7.2-2-9.2l0,0h-1.2h-0.8l0,0
	c-4-2.4-6.8-2.8-9.2-3.6h0.4c-16-5.2-30-16-40.4-29.6c-5.6-7.6-10.4-15.6-14-24.4l0,0c-1.2-3.6-1.2-8,0.4-10.4l0,0
	c2.8-4,8.4-6.8,14-8.8l0,0c6.4-2,13.2-4.8,18.8-9.6l0,0c0.8-0.8,1.2-2,2-3.6s3.2-4-0.4-6.4l0,0c0-3.2-1.2-6-5.2-7.2l0,0
	c-3.6,0-7.6,0-11.2,0l0,0l0,0c-4,1.2-7.2,2.4-10,2.8l0,0c-4,0-8,0-11.2-1.2c0-0.4,0-2.8,0-2.8l0,0c-0.4-8-1.2-13.6-1.2-21.2l0,0
	c0-11.2,1.6-22.8,0-34.4h0.4c-3.6-19.6-16-37.2-32-48.4c-11.6-8-25.2-10.8-39.2-14.8l0,0C262,111.2,257.2,111.6,252.8,111.6z"/>
<path d="M378.8,508H129.2C58,508,0,450,0,378.8V129.2C0,58,58,0,129.2,0h249.6C450,0,508,58,508,129.2v249.6
	C508,450,450,508,378.8,508z M129.2,8C62.4,8,8,62.4,8,129.2v249.6C8,445.6,62.4,500,129.2,500h249.6c66.8,0,121.2-54.4,121.2-121.2
	V129.2C500,62.4,445.6,8,378.8,8H129.2z"/>
<path d="M370,484H138c-62,0-114-52.4-114-114V138C24,76,76,24,138,24h231.2c2.4,0,4,1.6,4,4s-1.6,4-4,4H138C80.4,32,32,80.4,32,138
	v232c0,57.6,48.8,106,106,106h232c57.6,0,106-48.8,106-106V258c0-2.4,1.6-4,4-4s4,1.6,4,4v112C484,432,432,484,370,484z"/>
<path d="M446.8,65.2c-1.2,0-2-0.4-2.8-1.2c-19.6-19.6-50-32-78-32c-2.4,0-4-1.6-4-4s1.6-4,4-4c30.4,0,62.4,13.2,83.6,34.4
	c1.6,1.6,1.6,4,0,5.6C449.2,64.8,448,65.2,446.8,65.2z"/>
<path d="M480,234c-2.4,0-4-1.6-4-4v-59.2c0-2.4,1.6-4,4-4s4,1.6,4,4V230C484,232.4,482.4,234,480,234z"/>
<path d="M256,410.4c-0.8,0-1.6,0-2.4,0c-0.4,0-1.2,0-1.6,0c-20.8,0-34.8-10-46-17.6c-7.6-5.2-13.6-9.6-20.4-10.8
	c-3.6-0.8-7.2-0.8-11.2-0.8c-6.4,0-11.2,0.8-15.2,1.6h-0.4c-2.4,0.4-5.2,1.2-8,1.2c-6,0-10.4-3.2-12.4-9.2c-0.8-2.4-1.2-4.8-1.6-6.8
	l-0.4-0.8c-0.4-1.2-0.8-2.8-0.8-4c-13.2-2-22.8-4.8-29.6-8c-6.4-2.8-10.8-6.8-12.8-11.2v-0.4c-0.4-1.6-0.8-2.8-0.8-4.4
	c-0.4-5.6,3.6-10.8,9.6-11.6c9.2-1.6,17.6-4.8,25.6-10c6.4-4,12.8-9.6,18.4-16c9.6-11.2,14.4-21.6,15.2-23.6c0,0,0,0,0-0.4
	c0,0,0-0.4,0.4-0.4c1.6-3.2,2-6,1.6-7.2c-1.6-3.6-10-6.4-14.4-8l-1.2-0.4c-1.6-0.4-2.8-0.8-4-1.2c-5.6-2.4-10-4.8-13.2-7.6
	c-6.4-6-6.4-12.4-5.6-14.8c0.8-4.4,4-8.4,8.8-11.2c6-3.6,13.6-4,18.8-1.6c4.8,2.4,8.8,3.2,12.4,3.2c0.4,0,0.8,0,0.8,0
	c0-1.2,0-2.4-0.4-3.6v-0.4c-1.2-21.6-3.2-48.8,4.4-65.2c5.2-11.2,12-20.8,20-28.8c6.8-6.8,15.2-12,24-16c15.6-6.8,30.4-8,37.6-8h5.2
	c0,0,0.4,0,0.8,0c7.2,0,22,1.2,37.6,8c9.2,4,17.2,9.6,24.4,16c8.4,8,15.2,17.6,20.4,28.8c7.6,16.4,5.6,43.6,4.4,65.2v1.2
	c0,1.2,0,2-0.4,2.8c0,0,0,0,0.4,0c3.2-0.4,7.2-1.6,11.6-3.2c3.2-1.6,6.4-1.6,8-1.6c2.8,0,6,0.4,8.4,1.6c7.6,2.8,12.4,8.8,12.4,15.6
	c0,2.4-0.4,6.8-4.8,11.6c-3.2,3.2-7.6,6-14,8.4c-0.8,0.4-2,0.8-3.6,1.2l-1.6,0c-4.4,1.6-12.8,4-14.4,8c-0.8,1.6-0.4,4,1.2,7.6
	c0,0.4,0.4,0.8,0.4,0.8c4,8.4,22.4,43.2,58.8,49.2c6,0.8,10,6,9.6,12c0,1.6-0.4,2.8-0.8,4.4c-2,4.8-6.4,8.4-12.8,11.2
	c-6.8,3.2-16.4,6-29.6,8c-0.4,1.2-0.8,2.4-0.8,4l-0.4,2c-0.4,2-0.8,4-1.6,5.6c-1.6,5.6-6,8.8-12,8.8c-2.4,0-5.2-0.4-8.4-0.8
	c-4-0.8-9.2-1.6-15.6-1.6c-4,0-7.6,0.4-11.2,0.8c-6.8,1.2-13.2,5.6-20.4,10.8C290.8,400.8,276.8,410.4,256,410.4z M174.4,373.2
	c4.4,0,8.4,0.4,12.4,1.2c8.4,1.6,15.6,6.4,23.6,12c11.2,8,23.2,16.4,41.6,16.4c0.4,0,0.8,0,0.8,0c0.4,0,0.4,0,0.8,0c0.4,0,1.2,0,2,0
	c18.4,0,30.4-8.8,41.2-16.4c8-5.6,15.2-10.8,24-12c4-0.8,8.4-1.2,12.4-1.2c7.2,0,12.8,0.8,17.2,2c3.2,0.8,5.6,0.8,6.4,0.8
	c2.4,0,4-1.2,4.4-3.2s0.8-3.6,1.2-5.2l0.4-2c0.8-3.6,1.6-6,2-7.6c0.4-1.2,1.6-2,3.2-2.4c13.2-2,23.6-4.8,29.6-7.6
	c4.8-2,7.6-4.4,8.8-7.2c0.4-0.4,0.4-1.2,0.4-2c0-1.6-1.2-3.2-2.8-3.6c-41.2-6.8-61.2-46.4-64.8-54c0-0.4-0.4-0.4-0.4-0.8
	c-2.8-5.6-3.2-10-1.6-14c2.8-7.2,12.8-10.4,19.6-12.4l1.6-0.4c1.2-0.4,2-0.8,2.8-0.8c5.2-2,8.8-4.4,11.2-6.8
	c2.4-2.4,2.8-4.8,2.8-5.6c0-3.2-2.8-6.4-7.6-8c-1.6-0.8-3.6-1.2-5.6-1.2c-0.8,0-2.8,0-4.8,0.8c-5.2,2.4-10,4-14.4,4c0,0-0.4,0-0.8,0
	c-2.4,0-4.4-0.8-5.6-1.2c-1.6-0.8-2.4-2.4-2.4-4v-2c0-1.2,0-2.8,0.4-4.4v-1.2c1.2-20.8,2.8-46.8-3.6-61.2
	c-4.8-10.4-10.8-19.2-18.4-26.4c-6.4-6-13.6-10.8-22-14.4c-14.4-6.4-27.6-7.2-34.4-7.2h-6c-6.8,0-20.4,0.8-34.4,7.2
	c-8.4,3.6-15.6,8.4-22,14.4c-7.6,7.2-13.6,16-18.4,26.4c-6.8,14.8-5.2,40.8-3.6,61.6v0.4c0,2.4,0.4,4.8,0.4,7.2c0,1.6-0.8,3.2-2.4,4
	c-6,2.4-13.6,1.6-22.4-2.8c-2.8-1.2-7.6-0.8-11.2,1.2c-2.8,1.6-4.4,3.6-4.8,6c-0.4,1.6,0,4.4,3.2,7.2c2.4,2,6,4,10.8,6
	c0.8,0.4,2,0.8,3.2,1.2l1.2,0.4c6.8,2,16.4,5.2,19.6,12.4c1.6,3.6,1.2,8.4-1.6,13.6v0.4c-0.8,2-6,13.6-16.4,25.6
	c-6,7.2-12.8,13.2-20,17.6c-8.8,5.6-18.4,9.2-28.4,11.2c-1.6,0.4-2.8,1.6-2.8,3.6c0,0.8,0,1.2,0.4,2l0,0c1.2,2.4,4,4.8,8.8,6.8
	c6.4,3.2,16.4,5.6,30,7.6c1.2,0,2.4,0.8,2.8,2c0.8,1.6,1.6,4.4,2.4,7.6l0.4,1.2c0.4,2,0.8,4,1.6,6.4s2,3.2,4.8,3.2
	c2,0,4.4-0.4,6.4-0.8h0.4C161.6,374.4,167.2,373.2,174.4,373.2z"/>
<g>
</g>
<g>
</g>
<g>
</g>
<g>
</g>
<g>
</g>
<g>
</g>
<g>
</g>
<g>
</g>
<g>
</g>
<g>
</g>
<g>
</g>
<g>
</g>
<g>
</g>
<g>
</g>
<g>
</g>
</svg>
